# xmcd CD database file
#
# Track frame offsets:
#	150
#	12809
#	24452
#	37087
#	52427
#	63662
#	84034
#	97799
#	111537
#	126984
#	144844
#	158547
#	173339
#	188462
#
# Disc length: 2635 seconds
#
# Revision: 0
# Processed by: cddbd v1.5.1PL0 Copyright (c) Steve Scherf et al.
# Submitted via: CDex 1.51
#
DISCID=aa0a490e
DTITLE=Tim Janis - A Winter's Eve
DYEAR=2004
DGENRE=New Age
TTITLE0=Blanketed with Snow
TTITLE1=At the Breaker's Edge
TTITLE2=For a Moment Still
TTITLE3=Grand Lake (piano reprise)
TTITLE4=A Winter's Eve
TTITLE5=Where Tomorrow Finds Us
TTITLE6=Falls Ridge (piano reprise)
TTITLE7=Muir Woods
TTITLE8=Throughout the Years
TTITLE9=Evening Sky (piano reprise)
TTITLE10=Ever So Far the Blue Sea Lays Before Us
TTITLE11=Bright Winter Star
TTITLE12=The Sea on Every Side
TTITLE13=Heaven's Wonders Lift My Heart
EXTD=YEAR: 2004
EXTT0=
EXTT1=
EXTT2=
EXTT3=
EXTT4=
EXTT5=
EXTT6=
EXTT7=
EXTT8=
EXTT9=
EXTT10=
EXTT11=
EXTT12=
EXTT13=
PLAYORDER=
